<svg width="23" height="23" viewBox="0 0 23 23" fill="none" xmlns="http://www.w3.org/2000/svg">
<path d="M1.84692 2.77032H7.38771C8.36738 2.77032 9.30693 3.1595 9.99966 3.85223C10.6924 4.54496 11.0816 5.48451 11.0816 6.46418V19.3927C11.0816 18.6579 10.7897 17.9533 10.2701 17.4337C9.75059 16.9142 9.04593 16.6223 8.31118 16.6223H1.84692V2.77032Z" stroke="white" stroke-width="1.84693" stroke-linecap="round" stroke-linejoin="round"/>
<path d="M20.3162 2.77032H14.7754C13.7957 2.77032 12.8562 3.1595 12.1634 3.85223C11.4707 4.54496 11.0815 5.48451 11.0815 6.46418V19.3927C11.0815 18.6579 11.3734 17.9533 11.893 17.4337C12.4125 16.9142 13.1172 16.6223 13.8519 16.6223H20.3162V2.77032Z" stroke="white" stroke-width="1.84693" stroke-linecap="round" stroke-linejoin="round"/>
</svg>
